# xmcd
#
# Track frame offsets: 
#        150
#        18019
#        43173
#        60732
#        81739
#        95834
#        112403
#        130560
#        148139
#        167036
#        180926
#        198004
#        217476
#        238607
#        256748
#        271167
#        295553
#
# Disc length: 4142 seconds
#
# Revision: 1
# Processed by: cddbd v1.5.1PL0 Copyright (c) Steve Scherf et al.
# Submitted via: ExactAudioCopy v0.90b4
#
DISCID=fb102c11
DTITLE=姜苏 - 怀念战友
DYEAR=2004
DGENRE=Acid Jazz
TTITLE0=红星照我去战斗
TTITLE1=怀念战友
TTITLE2=大海啊，故乡
TTITLE3=映山红
TTITLE4=游击队之歌
TTITLE5=雁南飞
TTITLE6=我爱这蓝色的海洋
TTITLE7=驼铃
TTITLE8=再见吧,妈妈
TTITLE9=打靶归来
TTITLE10=军港之夜
TTITLE11=友谊地久天长
TTITLE12=我愿变成一杯香芋
TTITLE13=掀起你的头盖来
TTITLE14=半个月亮爬上来
TTITLE15=新疆好
TTITLE16=青春舞曲
EXTD=wd
EXTT0=
EXTT1=
EXTT2=
EXTT3=
EXTT4=
EXTT5=
EXTT6=
EXTT7=
EXTT8=
EXTT9=
EXTT10=
EXTT11=
EXTT12=
EXTT13=
EXTT14=
EXTT15=
EXTT16=
PLAYORDER=
